{"title":"Dunston.Checks.In.1996.720p.WEB-DL.DD5.1.H264-FGT","uid":11940749,"size":2905597124,"categoryP":"video","categoryS":"hd___movies","magnet":"?xt=urn:btih:bfbf4d5ffcf8bea40aa034ef8ef4efe4fb4b0af3&amp;dn=Dunston.Checks.In.1996.720p.WEB-DL.DD5.1.H264-FGT&amp;tr=udp%3A%2F%2Ftracker.openbittorrent.com%3A80&amp;tr=udp%3A%2F%2Fopen.demonii.com%3A1337&amp;tr=udp%3A%2F%2Ftracker.coppersurfer.tk%3A6969&amp;tr=udp%3A%2F%2Fexodus.desync.com%3A6969","seeders":0,"leechers":1,"uploader":"vickey1992","files":2,"time":1431959978,"description":"Video\nID                                       : 1\nFormat                                   : AVC\nFormat/Info                              : Advanced Video Codec\nFormat profile                           : &lt;a class=&quot;__cf_email__&quot; href=&quot;/cdn-cgi/l/email-protection&quot; data-cfemail=&quot;450d2c222d0509766b74&quot;&gt;[email&amp;#160;protected]&lt;/a&gt;&lt;script data-cfhash='f9e31' type=&quot;text/javascript&quot;&gt;\n/* &lt;![CDATA[ */!function(){try{var t=&quot;currentScript&quot;in document?document.currentScript:function(){for(var t=document.getElementsByTagName(&quot;script&quot;),e=t.length;e--;)if(t[e].getAttribute(&quot;data-cfhash&quot;))return t[e]}();if(t&amp;&amp;t.previousSibling){var e,r,n,i,c=t.previousSibling,a=c.getAttribute(&quot;data-cfemail&quot;);if(a){for(e=&quot;&quot;,r=parseInt(a.substr(0,2),16),n=2;a.length-n;n+=2)i=parseInt(a.substr(n,2),16)^r,e+=String.fromCharCode(i);e=document.createTextNode(e),c.parentNode.replaceChild(e,c)}t.parentNode.removeChild(t);}}catch(u){}}()/* ]]&gt; */&lt;/script&gt;\nFormat settings, CABAC                   : No\nFormat settings, ReFrames                : 2 frames\nCodec ID                                 : V_MPEG4/ISO/AVC\nDuration                                 : 1h 28mn\nBit rate                                 : 3 924 Kbps\nWidth                                    : 1 280 pixels\nHeight                                   : 720 pixels\nDisplay aspect ratio                     : 16:9\nFrame rate mode                          : Constant\nFrame rate                               : 23.976 fps\nColor space                              : YUV\nChroma subsampling                       : 4:2:0\nBit depth                                : 8 bits\nScan type                                : Progressive\nBits/(Pixel*Frame)                       : 0.178\nStream size                              : 2.42 GiB (89%)\nTitle                                    : Dunston.Checks.In.1996.720p.WEB-DL.DD5.1.H264-FGT\nLanguage                                 : English\nDefault                                  : Yes\nForced                                   : No\nColor primaries                          : BT.709\nTransfer characteristics                 : BT.709\nMatrix coefficients                      : BT.709\nColor range                              : Limited\n\nAudio\nID                                       : 2\nFormat                                   : AC-3\nFormat/Info                              : Audio Coding 3\nMode extension                           : CM (complete main)\nFormat settings, Endianness              : Big\nCodec ID                                 : A_AC3\nDuration                                 : 1h 28mn\nBit rate mode                            : Constant\nBit rate                                 : 384 Kbps\nChannel(s)                               : 6 channels\nChannel positions                        : Front: L C R, Side: L R, LFE\nSampling rate                            : 48.0 KHz\nBit depth                                : 16 bits\nCompression mode                         : Lossy\nStream size                              : 242 MiB (9%)\nTitle                                    : Dunston.Checks.In.1996.720p.WEB-DL.DD5.1.H264-FGT\nLanguage                                 : English\nDefault                                  : Yes\nForced                                   : No\n\nText\nID                                       : 3\nFormat                                   : UTF-8\nCodec ID                                 : S_TEXT/UTF8\nCodec ID/Info                            : UTF-8 Plain Text\nTitle                                    : CC\nLanguage                                 : English\nDefault                                  : Yes\nForced                                   : No\n\nMenu\n00:00:00.000                             : en:Main Titles\n00:02:33.000                             : en:Mischief at the Majestic\n00:06:21.000                             : en:The Manager's Kids\n00:09:02.000                             : en:Rutledge and His Roommate\n00:12:57.000                             : en:Mrs. Dubrow\n00:19:11.000                             : en:The Jewel Thieves\n00:26:29.000                             : en:Monster on the Ledge\n00:29:25.000                             : enunston's Revolt\n00:33:09.000                             : en:The Guest Gorilla\n00:36:29.000                             : en:Kyle's New Friend\n00:41:17.000                             : en:A Simian in the Spa\n00:46:11.000                             : en:Apologies\n00:48:16.000                             : enad Meets Dunston\n00:50:56.000                             : en:Buck La Farge\n00:53:48.000                             : en:A Very Smart Animal\n00:56:15.000                             : en:First Aid\n00:58:08.000                             : en:The Royal Suite\n01:00:16.000                             : en:Best Behavior\n01:05:11.000                             : en:Orangutan on the Run\n01:08:35.000                             : en:Telling Dad\n01:12:49.000                             : en:Kitchen Chaos\n01:14:55.000                             : en:Monkey Business\n01:20:19.000                             : enunston's New Home\n01:23:01.000                             : en:End Titles","torrent":{"xt":"urn:btih:bfbf4d5ffcf8bea40aa034ef8ef4efe4fb4b0af3","amp;dn":"Dunston.Checks.In.1996.720p.WEB-DL.DD5.1.H264-FGT","amp;tr":["udp%3A%2F%2Ftracker.openbittorrent.com%3A80","udp%3A%2F%2Fopen.demonii.com%3A1337","udp%3A%2F%2Ftracker.coppersurfer.tk%3A6969","udp%3A%2F%2Fexodus.desync.com%3A6969"],"infoHash":"bfbf4d5ffcf8bea40aa034ef8ef4efe4fb4b0af3","infoHashBuffer":{"type":"Buffer","data":[191,191,77,95,252,248,190,164,10,160,52,239,142,244,239,228,251,75,10,243]},"announce":[],"urlList":[]}}